<svg xmlns="http://www.w3.org/2000/svg" xmlns:xlink="http://www.w3.org/1999/xlink" width="175" zoomAndPan="magnify" viewBox="0 0 131.25 187.499992" height="250" preserveAspectRatio="xMidYMid meet" version="1.0"><defs><g/><clipPath id="3c0ac38dee"><path d="M 0 0.285156 L 127 0.285156 L 127 186.71875 L 0 186.71875 Z M 0 0.285156 " clip-rule="nonzero"/></clipPath><clipPath id="0ff004a196"><path d="M 4 5 L 126.953125 5 L 126.953125 119 L 4 119 Z M 4 5 " clip-rule="nonzero"/></clipPath><clipPath id="4b7a9708d8"><rect x="0" width="127" y="0" height="187"/></clipPath><clipPath id="cab49e9973"><path d="M 5 0.285156 L 130.503906 0.285156 L 130.503906 186.71875 L 5 186.71875 Z M 5 0.285156 " clip-rule="nonzero"/></clipPath><clipPath id="aed0b697a4"><rect x="0" width="126" y="0" height="187"/></clipPath><clipPath id="fc29774bbc"><rect x="0" width="126" y="0" height="187"/></clipPath></defs><g clip-path="url(#3c0ac38dee)"><g transform="matrix(1, 0, 0, 1, 0, -0.000000000000004163)"><g clip-path="url(#4b7a9708d8)"><g clip-path="url(#0ff004a196)"><g fill="#000000" fill-opacity="1"><g transform="translate(-5.059034, 117.782158)"><g><path d="M 49.234375 1 C 41.804688 1 35.070312 -0.632812 29.03125 -3.90625 C 22.988281 -7.175781 18.191406 -12 14.640625 -18.375 C 11.085938 -24.757812 9.3125 -32.382812 9.3125 -41.25 C 9.3125 -48.019531 10.476562 -55.5625 12.8125 -63.875 C 17.90625 -81.613281 25.914062 -94.144531 36.84375 -101.46875 C 47.769531 -108.789062 59.441406 -112.453125 71.859375 -112.453125 C 83.171875 -112.453125 93.375 -108.347656 102.46875 -100.140625 L 107.453125 -104.96875 C 110.222656 -107.289062 112.609375 -108.894531 114.609375 -109.78125 C 116.609375 -110.675781 118.9375 -111.125 121.59375 -111.125 C 124.476562 -111.125 126.804688 -110.425781 128.578125 -109.03125 C 130.359375 -107.644531 131.25 -105.789062 131.25 -103.46875 C 131.25 -102.582031 131.082031 -101.53125 130.75 -100.3125 L 124.75 -79.34375 C 123.644531 -75.789062 122.34375 -73.296875 120.84375 -71.859375 C 119.351562 -70.421875 117.332031 -69.703125 114.78125 -69.703125 C 112.113281 -69.703125 109.753906 -70.363281 107.703125 -71.6875 C 105.648438 -73.019531 103.296875 -75.40625 100.640625 -78.84375 C 97.085938 -83.5 93.953125 -86.796875 91.234375 -88.734375 C 88.523438 -90.679688 85.5625 -91.65625 82.34375 -91.65625 C 77.351562 -91.65625 72.609375 -89.128906 68.109375 -84.078125 C 63.617188 -79.035156 59.710938 -70.640625 56.390625 -58.890625 C 54.285156 -51.234375 53.234375 -44.632812 53.234375 -39.09375 C 53.234375 -33.21875 54.367188 -28.753906 56.640625 -25.703125 C 58.910156 -22.648438 62.097656 -21.125 66.203125 -21.125 C 69.753906 -21.125 72.5 -21.953125 74.4375 -23.609375 C 76.375 -25.273438 77.898438 -28.160156 79.015625 -32.265625 L 80.171875 -36.421875 C 80.734375 -38.640625 81.015625 -40.140625 81.015625 -40.921875 C 81.015625 -42.253906 80.707031 -43.195312 80.09375 -43.75 C 79.476562 -44.300781 78.453125 -44.910156 77.015625 -45.578125 L 71.1875 -47.734375 C 68.644531 -48.734375 67.375 -50.566406 67.375 -53.234375 C 67.375 -54.003906 67.425781 -54.613281 67.53125 -55.0625 C 67.976562 -56.5 68.78125 -57.550781 69.9375 -58.21875 C 71.101562 -58.882812 72.910156 -59.21875 75.359375 -59.21875 L 125.59375 -59.046875 C 129.25 -59.046875 131.078125 -57.882812 131.078125 -55.5625 C 131.078125 -55.113281 130.96875 -54.445312 130.75 -53.5625 C 130.300781 -51.894531 129.578125 -50.5625 128.578125 -49.5625 C 127.585938 -48.570312 126.148438 -47.578125 124.265625 -46.578125 L 119.9375 -44.078125 C 118.820312 -43.410156 117.988281 -42.769531 117.4375 -42.15625 C 116.882812 -41.550781 116.5 -40.804688 116.28125 -39.921875 L 107.453125 -9.15625 C 106.347656 -5.488281 105.101562 -3.046875 103.71875 -1.828125 C 102.332031 -0.609375 100.640625 0 98.640625 0 L 91.65625 0 C 88.988281 0 86.796875 -0.550781 85.078125 -1.65625 C 83.359375 -2.769531 81.945312 -4.9375 80.84375 -8.15625 L 79.171875 -12.96875 C 71.191406 -3.65625 61.210938 1 49.234375 1 Z M 49.234375 1 "/></g></g></g></g></g></g></g><g clip-path="url(#cab49e9973)"><g transform="matrix(1, 0, 0, 1, 5, -0.000000000000004163)"><g clip-path="url(#aed0b697a4)"><g fill="#0097b2" fill-opacity="1"><g transform="translate(5.683916, 176.008777)"><g><path d="M 62 -95.375 C 62.226562 -96.082031 62.34375 -97.023438 62.34375 -98.203125 C 62.34375 -100.085938 61.84375 -101.617188 60.84375 -102.796875 C 59.84375 -103.972656 58.285156 -105.269531 56.171875 -106.6875 C 54.398438 -107.976562 53.128906 -109.09375 52.359375 -110.03125 C 51.597656 -110.976562 51.394531 -112.097656 51.75 -113.390625 C 52.101562 -115.035156 52.984375 -116.148438 54.390625 -116.734375 C 55.804688 -117.328125 58.046875 -117.625 61.109375 -117.625 L 111.28125 -117.625 C 113.75 -117.625 115.660156 -117.210938 117.015625 -116.390625 C 118.367188 -115.566406 119.046875 -114.507812 119.046875 -113.21875 C 119.046875 -112.625 118.867188 -111.859375 118.515625 -110.921875 C 118.160156 -110.097656 117.660156 -109.359375 117.015625 -108.703125 C 116.367188 -108.054688 115.78125 -107.585938 115.25 -107.296875 C 114.71875 -107.003906 114.332031 -106.738281 114.09375 -106.5 C 112.21875 -105.445312 110.6875 -104.269531 109.5 -102.96875 C 108.320312 -101.675781 107.320312 -99.675781 106.5 -96.96875 L 89.203125 -35.859375 C 85.660156 -23.367188 79.648438 -14.09375 71.171875 -8.03125 C 62.703125 -1.96875 51.695312 1.0625 38.15625 1.0625 C 29.082031 1.0625 21.394531 -0.257812 15.09375 -2.90625 C 8.800781 -5.5625 4.0625 -9.125 0.875 -13.59375 C -2.300781 -18.070312 -3.890625 -22.960938 -3.890625 -28.265625 C -3.890625 -30.847656 -3.535156 -33.378906 -2.828125 -35.859375 C -1.296875 -41.148438 1.320312 -45.148438 5.03125 -47.859375 C 8.738281 -50.566406 12.890625 -51.921875 17.484375 -51.921875 C 22.785156 -51.921875 26.847656 -50.332031 29.671875 -47.15625 C 32.492188 -43.976562 33.90625 -39.914062 33.90625 -34.96875 C 33.90625 -32.5 33.554688 -30.023438 32.859375 -27.546875 C 31.441406 -22.609375 28.789062 -18.960938 24.90625 -16.609375 C 26.789062 -15.429688 28.96875 -14.84375 31.4375 -14.84375 C 33.90625 -14.84375 36.082031 -16.078125 37.96875 -18.546875 C 39.851562 -21.015625 41.445312 -24.488281 42.75 -28.96875 Z M 62 -95.375 "/></g></g></g></g></g><g transform="matrix(1, 0, 0, 1, 5, -0.000000000000004163)"><g clip-path="url(#fc29774bbc)"><g fill="#0097b2" fill-opacity="1"><g transform="translate(5.683916, 177.641205)"><g><path d="M 62 -95.375 C 62.226562 -96.082031 62.34375 -97.023438 62.34375 -98.203125 C 62.34375 -100.085938 61.84375 -101.617188 60.84375 -102.796875 C 59.84375 -103.972656 58.285156 -105.269531 56.171875 -106.6875 C 54.398438 -107.976562 53.128906 -109.09375 52.359375 -110.03125 C 51.597656 -110.976562 51.394531 -112.097656 51.75 -113.390625 C 52.101562 -115.035156 52.984375 -116.148438 54.390625 -116.734375 C 55.804688 -117.328125 58.046875 -117.625 61.109375 -117.625 L 111.28125 -117.625 C 113.75 -117.625 115.660156 -117.210938 117.015625 -116.390625 C 118.367188 -115.566406 119.046875 -114.507812 119.046875 -113.21875 C 119.046875 -112.625 118.867188 -111.859375 118.515625 -110.921875 C 118.160156 -110.097656 117.660156 -109.359375 117.015625 -108.703125 C 116.367188 -108.054688 115.78125 -107.585938 115.25 -107.296875 C 114.71875 -107.003906 114.332031 -106.738281 114.09375 -106.5 C 112.21875 -105.445312 110.6875 -104.269531 109.5 -102.96875 C 108.320312 -101.675781 107.320312 -99.675781 106.5 -96.96875 L 89.203125 -35.859375 C 85.660156 -23.367188 79.648438 -14.09375 71.171875 -8.03125 C 62.703125 -1.96875 51.695312 1.0625 38.15625 1.0625 C 29.082031 1.0625 21.394531 -0.257812 15.09375 -2.90625 C 8.800781 -5.5625 4.0625 -9.125 0.875 -13.59375 C -2.300781 -18.070312 -3.890625 -22.960938 -3.890625 -28.265625 C -3.890625 -30.847656 -3.535156 -33.378906 -2.828125 -35.859375 C -1.296875 -41.148438 1.320312 -45.148438 5.03125 -47.859375 C 8.738281 -50.566406 12.890625 -51.921875 17.484375 -51.921875 C 22.785156 -51.921875 26.847656 -50.332031 29.671875 -47.15625 C 32.492188 -43.976562 33.90625 -39.914062 33.90625 -34.96875 C 33.90625 -32.5 33.554688 -30.023438 32.859375 -27.546875 C 31.441406 -22.609375 28.789062 -18.960938 24.90625 -16.609375 C 26.789062 -15.429688 28.96875 -14.84375 31.4375 -14.84375 C 33.90625 -14.84375 36.082031 -16.078125 37.96875 -18.546875 C 39.851562 -21.015625 41.445312 -24.488281 42.75 -28.96875 Z M 62 -95.375 "/></g></g></g></g></g></g></svg>