<svg xmlns="http://www.w3.org/2000/svg" xmlns:xlink="http://www.w3.org/1999/xlink" width="500" zoomAndPan="magnify" viewBox="0 0 375 374.999991" height="500" preserveAspectRatio="xMidYMid meet" version="1.0"><defs><g/><clipPath id="1e6237c35e"><path d="M 9 58 L 133.679688 58 L 133.679688 174 L 9 174 Z M 9 58 " clip-rule="nonzero"/></clipPath><clipPath id="7018428a1e"><rect x="0" width="134" y="0" height="247"/></clipPath><clipPath id="4138e60019"><path d="M 0.078125 63 L 125.601562 63 L 125.601562 184 L 0.078125 184 Z M 0.078125 63 " clip-rule="nonzero"/></clipPath><clipPath id="f096c56160"><rect x="0" width="126" y="0" height="261"/></clipPath><clipPath id="834c465c6a"><path d="M 0.078125 64 L 125.601562 64 L 125.601562 185 L 0.078125 185 Z M 0.078125 64 " clip-rule="nonzero"/></clipPath><clipPath id="e8ca8bbf70"><rect x="0" width="126" y="0" height="262"/></clipPath></defs><g transform="matrix(1, 0, 0, 1, 120, 35)"><g clip-path="url(#7018428a1e)"><g clip-path="url(#1e6237c35e)"><g fill="#ffffff" fill-opacity="1"><g transform="translate(0.456867, 172.875754)"><g><path d="M 49.90625 1.015625 C 42.375 1.015625 35.546875 -0.640625 29.421875 -3.953125 C 23.296875 -7.273438 18.429688 -12.164062 14.828125 -18.625 C 11.234375 -25.09375 9.4375 -32.820312 9.4375 -41.8125 C 9.4375 -48.675781 10.617188 -56.320312 12.984375 -64.75 C 18.148438 -82.738281 26.269531 -95.441406 37.34375 -102.859375 C 48.414062 -110.273438 60.25 -113.984375 72.84375 -113.984375 C 84.3125 -113.984375 94.65625 -109.828125 103.875 -101.515625 L 108.9375 -106.40625 C 111.738281 -108.757812 114.148438 -110.382812 116.171875 -111.28125 C 118.203125 -112.1875 120.566406 -112.640625 123.265625 -112.640625 C 126.191406 -112.640625 128.550781 -111.9375 130.34375 -110.53125 C 132.144531 -109.125 133.046875 -107.242188 133.046875 -104.890625 C 133.046875 -103.984375 132.878906 -102.914062 132.546875 -101.6875 L 126.46875 -80.4375 C 125.34375 -76.832031 124.019531 -74.300781 122.5 -72.84375 C 120.988281 -71.382812 118.9375 -70.65625 116.34375 -70.65625 C 113.644531 -70.65625 111.253906 -71.328125 109.171875 -72.671875 C 107.097656 -74.023438 104.710938 -76.441406 102.015625 -79.921875 C 98.421875 -84.648438 95.242188 -87.992188 92.484375 -89.953125 C 89.734375 -91.921875 86.726562 -92.90625 83.46875 -92.90625 C 78.40625 -92.90625 73.597656 -90.347656 69.046875 -85.234375 C 64.492188 -80.117188 60.53125 -71.601562 57.15625 -59.6875 C 55.019531 -51.9375 53.953125 -45.25 53.953125 -39.625 C 53.953125 -33.664062 55.101562 -29.140625 57.40625 -26.046875 C 59.71875 -22.960938 62.953125 -21.421875 67.109375 -21.421875 C 70.710938 -21.421875 73.492188 -22.257812 75.453125 -23.9375 C 77.421875 -25.625 78.96875 -28.550781 80.09375 -32.71875 L 81.28125 -36.921875 C 81.84375 -39.171875 82.125 -40.691406 82.125 -41.484375 C 82.125 -42.828125 81.8125 -43.78125 81.1875 -44.34375 C 80.570312 -44.90625 79.535156 -45.523438 78.078125 -46.203125 L 72.171875 -48.390625 C 69.585938 -49.398438 68.296875 -51.253906 68.296875 -53.953125 C 68.296875 -54.742188 68.351562 -55.363281 68.46875 -55.8125 C 68.914062 -57.269531 69.726562 -58.335938 70.90625 -59.015625 C 72.082031 -59.691406 73.910156 -60.03125 76.390625 -60.03125 L 127.3125 -59.859375 C 131.019531 -59.859375 132.875 -58.679688 132.875 -56.328125 C 132.875 -55.867188 132.765625 -55.191406 132.546875 -54.296875 C 132.085938 -52.609375 131.351562 -51.257812 130.34375 -50.25 C 129.332031 -49.238281 127.875 -48.226562 125.96875 -47.21875 L 121.578125 -44.6875 C 120.453125 -44.007812 119.609375 -43.359375 119.046875 -42.734375 C 118.484375 -42.117188 118.09375 -41.363281 117.875 -40.46875 L 108.9375 -9.28125 C 107.8125 -5.5625 106.546875 -3.082031 105.140625 -1.84375 C 103.734375 -0.613281 102.019531 0 100 0 L 92.90625 0 C 90.207031 0 87.988281 -0.5625 86.25 -1.6875 C 84.507812 -2.8125 83.078125 -5.003906 81.953125 -8.265625 L 80.265625 -13.15625 C 72.171875 -3.707031 62.050781 1.015625 49.90625 1.015625 Z M 49.90625 1.015625 "/></g></g></g></g></g></g><g transform="matrix(1, 0, 0, 1, 130, 84)"><g clip-path="url(#f096c56160)"><g clip-path="url(#4138e60019)"><g fill="#0097b2" fill-opacity="1"><g transform="translate(4.684922, 182.734045)"><g><path d="M 62.84375 -96.671875 C 63.082031 -97.390625 63.203125 -98.347656 63.203125 -99.546875 C 63.203125 -101.453125 62.691406 -103 61.671875 -104.1875 C 60.660156 -105.382812 59.082031 -106.703125 56.9375 -108.140625 C 55.144531 -109.453125 53.859375 -110.582031 53.078125 -111.53125 C 52.304688 -112.488281 52.097656 -113.625 52.453125 -114.9375 C 52.816406 -116.601562 53.710938 -117.734375 55.140625 -118.328125 C 56.578125 -118.929688 58.84375 -119.234375 61.9375 -119.234375 L 112.796875 -119.234375 C 115.296875 -119.234375 117.234375 -118.816406 118.609375 -117.984375 C 119.984375 -117.148438 120.671875 -116.078125 120.671875 -114.765625 C 120.671875 -114.160156 120.488281 -113.382812 120.125 -112.4375 C 119.769531 -111.59375 119.265625 -110.84375 118.609375 -110.1875 C 117.953125 -109.53125 117.351562 -109.050781 116.8125 -108.75 C 116.28125 -108.457031 115.894531 -108.191406 115.65625 -107.953125 C 113.75 -106.878906 112.195312 -105.6875 111 -104.375 C 109.800781 -103.0625 108.785156 -101.03125 107.953125 -98.28125 L 90.40625 -36.34375 C 86.832031 -23.6875 80.75 -14.285156 72.15625 -8.140625 C 63.5625 -1.992188 52.398438 1.078125 38.671875 1.078125 C 29.484375 1.078125 21.695312 -0.265625 15.3125 -2.953125 C 8.925781 -5.640625 4.117188 -9.25 0.890625 -13.78125 C -2.328125 -18.320312 -3.9375 -23.273438 -3.9375 -28.640625 C -3.9375 -31.265625 -3.578125 -33.832031 -2.859375 -36.34375 C -1.304688 -41.71875 1.34375 -45.773438 5.09375 -48.515625 C 8.851562 -51.265625 13.0625 -52.640625 17.71875 -52.640625 C 23.09375 -52.640625 27.210938 -51.023438 30.078125 -47.796875 C 32.941406 -44.578125 34.375 -40.460938 34.375 -35.453125 C 34.375 -32.941406 34.015625 -30.429688 33.296875 -27.921875 C 31.867188 -22.910156 29.1875 -19.210938 25.25 -16.828125 C 27.15625 -15.628906 29.363281 -15.03125 31.875 -15.03125 C 34.375 -15.03125 36.578125 -16.285156 38.484375 -18.796875 C 40.398438 -21.304688 42.015625 -24.828125 43.328125 -29.359375 Z M 62.84375 -96.671875 "/></g></g></g></g></g></g><g transform="matrix(1, 0, 0, 1, 130, 85)"><g clip-path="url(#e8ca8bbf70)"><g clip-path="url(#834c465c6a)"><g fill="#0097b2" fill-opacity="1"><g transform="translate(4.684922, 183.388784)"><g><path d="M 62.84375 -96.671875 C 63.082031 -97.390625 63.203125 -98.347656 63.203125 -99.546875 C 63.203125 -101.453125 62.691406 -103 61.671875 -104.1875 C 60.660156 -105.382812 59.082031 -106.703125 56.9375 -108.140625 C 55.144531 -109.453125 53.859375 -110.582031 53.078125 -111.53125 C 52.304688 -112.488281 52.097656 -113.625 52.453125 -114.9375 C 52.816406 -116.601562 53.710938 -117.734375 55.140625 -118.328125 C 56.578125 -118.929688 58.84375 -119.234375 61.9375 -119.234375 L 112.796875 -119.234375 C 115.296875 -119.234375 117.234375 -118.816406 118.609375 -117.984375 C 119.984375 -117.148438 120.671875 -116.078125 120.671875 -114.765625 C 120.671875 -114.160156 120.488281 -113.382812 120.125 -112.4375 C 119.769531 -111.59375 119.265625 -110.84375 118.609375 -110.1875 C 117.953125 -109.53125 117.351562 -109.050781 116.8125 -108.75 C 116.28125 -108.457031 115.894531 -108.191406 115.65625 -107.953125 C 113.75 -106.878906 112.195312 -105.6875 111 -104.375 C 109.800781 -103.0625 108.785156 -101.03125 107.953125 -98.28125 L 90.40625 -36.34375 C 86.832031 -23.6875 80.75 -14.285156 72.15625 -8.140625 C 63.5625 -1.992188 52.398438 1.078125 38.671875 1.078125 C 29.484375 1.078125 21.695312 -0.265625 15.3125 -2.953125 C 8.925781 -5.640625 4.117188 -9.25 0.890625 -13.78125 C -2.328125 -18.320312 -3.9375 -23.273438 -3.9375 -28.640625 C -3.9375 -31.265625 -3.578125 -33.832031 -2.859375 -36.34375 C -1.304688 -41.71875 1.34375 -45.773438 5.09375 -48.515625 C 8.851562 -51.265625 13.0625 -52.640625 17.71875 -52.640625 C 23.09375 -52.640625 27.210938 -51.023438 30.078125 -47.796875 C 32.941406 -44.578125 34.375 -40.460938 34.375 -35.453125 C 34.375 -32.941406 34.015625 -30.429688 33.296875 -27.921875 C 31.867188 -22.910156 29.1875 -19.210938 25.25 -16.828125 C 27.15625 -15.628906 29.363281 -15.03125 31.875 -15.03125 C 34.375 -15.03125 36.578125 -16.285156 38.484375 -18.796875 C 40.398438 -21.304688 42.015625 -24.828125 43.328125 -29.359375 Z M 62.84375 -96.671875 "/></g></g></g></g></g></g></svg>