<?xml version="1.0" encoding="UTF-8"?>
<svg
  viewBox="0 0 175.3 122.3"
  xmlns="http://www.w3.org/2000/svg"
  xmlns:xlink="http://www.w3.org/1999/xlink"
  role="img"
>
  <defs>
    <path id="b" d="m203.57 0.17c-0.12 0.12-0.24 0.29-0.24 0.45 0 0.29 0.34 0.69 0.97 1.33 2.63 2.53 3.95 5.62 3.94 9.35-0.01 4.13-1.4 7.45-4.1 10.01-0.57 0.51-0.8 0.91-0.8 1.25 0 0.17 0.12 0.34 0.23 0.51 0.11 0.12 0.34 0.23 0.51 0.23 0.62 0 1.5-0.73 2.64-2.17 2.22-2.72 3.22-5.73 3.28-9.82 0.05-4.1-1.23-6.88-3.75-9.75-0.9-1.03-1.66-1.56-2.17-1.56-0.17 0-0.35 0.06-0.51 0.17z"/>
    <path id="e" d="m195.66 12.04c-0.99-0.25 3.06-5.03-4.13-10.75 0 0 0.94 3-3.81 9.69-4.76 6.68 2.11 10.66 2.11 10.66s-3.22-1.72 0.53-7.84c0.67-1.11 1.55-2.11 2.64-4.38 0 0 0.96 1.37 0.46 4.32-0.75 4.47 3.27 3.19 3.33 3.25 1.41 1.65-1.16 4.56-1.32 4.65s7.34-4.5 2.01-11.42c-0.36 0.36-0.83 2.08-1.82 1.82z"/>
    <path id="f" d="m181.88 0.18c0.12 0.11 0.23 0.28 0.23 0.45 0 0.29-0.34 0.68-0.97 1.32-2.62 2.53-3.94 5.62-3.93 9.36 0.01 4.12 1.4 7.44 4.1 10.01 0.56 0.5 0.8 0.9 0.8 1.24 0 0.17-0.12 0.35-0.23 0.51-0.11 0.12-0.34 0.24-0.51 0.24-0.63 0-1.5-0.74-2.64-2.18-2.22-2.72-3.22-5.72-3.28-9.82-0.05-4.1 1.23-6.88 3.75-9.75 0.9-1.02 1.66-1.56 2.17-1.56 0.17 0 0.34 0.06 0.51 0.18z"/>
  </defs>

  <g fill="#000" transform="translate(-962.6 0)">
    <use transform="scale(5.3156)" xlink:href="#b"/>
    <use transform="scale(5.3156)" xlink:href="#e"/>
    <use transform="scale(5.3156)" xlink:href="#f"/>
  </g>
</svg>